<svg role="img" viewBox="0 0 24 24" xmlns="http://www.w3.org/2000/svg" id="Apachecordova--Streamline-Simple-Icons" height="24" width="24">
  <desc>
    Apachecordova Streamline Icon: https://streamlinehq.com
  </desc>
  <title>Apache Cordova</title>
  <path d="M18.545 0.545H5.455L0 9.273l2.182 14.182h3.886l-0.273 -3.273h1.909l0.273 3.273h8.045l0.273 -3.273h1.909l-0.273 3.273h3.886L24 9.273 18.545 0.545zm0 17.455H5.455L4.364 9.273l2.182 -4.364h3.506l-0.234 1.636h4.364l-0.234 -1.636h3.506l2.182 4.364L18.545 18zm-3 -6.955c0.301 0 0.545 0.908 0.545 2.029s-0.244 2.029 -0.545 2.029c-0.301 0 -0.545 -0.908 -0.545 -2.029 0 -1.12 0.244 -2.029 0.545 -2.029zm-6.886 0.17c0.301 0 0.545 0.908 0.545 2.029s-0.244 2.029 -0.545 2.029c-0.301 0 -0.545 -0.908 -0.545 -2.029s0.244 -2.029 0.545 -2.029z" fill="#000000" stroke-width="1"></path>
</svg>